<svg width="274" height="275" viewBox="0 0 274 275" fill="none" xmlns="http://www.w3.org/2000/svg">
<path opacity="0.05" d="M51.3519 274.997C33.8379 275.182 7.70162 265.229 12.1026 242.927C15.0665 227.814 2.67195 213.621 0.426566 198.416C-2.17808 180.906 7.34236 162.29 23.599 153.167C29.3471 149.942 36.1731 147.638 40.125 142.477C52.4297 126.81 31.7722 107.273 39.6759 86.2617C44.2565 74.1892 57.639 67.554 75.5123 68.6598C93.8347 69.8579 111.438 66.3559 113.684 49.307C115.57 35.5758 115.39 25.8994 129.581 14.1034C153.113 -5.52588 211.942 -8.10626 223.887 28.7562C227.39 39.4463 237.27 62.854 271.669 43.0404C298.434 27.5582 361.844 45.4365 341.546 90.0401C333.552 107.642 349.27 113.263 373.61 122.387C391.842 129.206 407.111 163.212 369.748 192.426C364.359 196.573 376.933 208.461 382.142 212.792C412.141 237.674 383.939 274.352 355.737 274.997C355.737 274.997 68.866 274.813 51.3519 274.997ZM92.8467 36.4052C82.8772 34.1013 79.7336 44.6992 80.0929 52.3482C80.1827 53.8227 80.2725 55.3893 80.9012 56.6795C81.8892 58.5227 83.8651 59.7207 85.8411 60.2736C89.0744 61.1952 92.6671 61.0109 95.9902 60.2736C98.1458 59.8128 100.301 59.0756 101.828 57.5089C107.936 51.2423 100.301 38.064 92.8467 36.4052ZM272.478 15.9465C271.579 16.5916 270.322 16.7759 269.244 16.4994C268.705 16.4073 268.077 16.1308 267.628 15.7622C264.394 13.3661 265.652 8.85048 269.783 9.31126C273.017 9.67988 276.16 13.4583 272.478 15.9465ZM370.197 98.8871C371.275 100.454 372.083 102.389 371.454 104.14C371.005 105.43 369.838 106.352 368.67 106.905C366.155 108.103 363.101 107.826 360.497 106.72C357.892 105.707 355.647 103.956 353.491 102.113C352.503 101.283 351.605 100.454 351.066 99.3478C350.707 98.5184 350.617 97.5969 350.617 96.7675C350.527 95.2008 350.707 93.6342 351.156 92.1597C351.785 90.2244 352.952 88.4734 354.12 86.9068C355.916 84.5107 358.521 81.6538 361.934 82.2068C364 82.5754 364.449 83.7734 364.539 85.7087C364.539 87.8283 364.089 89.8558 364.898 91.9753C365.796 94.74 368.58 96.5832 370.197 98.8871ZM16.8628 144.228C13.5396 147.085 7.88125 146.624 5.00716 143.214C-5.05218 131.234 3.83956 101.744 22.611 105.983C29.6166 107.55 34.9157 115.567 31.7722 122.571C29.9759 126.534 25.2156 128.561 22.9702 132.248C20.635 136.118 20.4554 141.187 16.8628 144.228Z" fill="white"/>
<path d="M176.497 169.622C176.497 165.291 173.715 161.605 172.458 157.458C162.136 121.425 146.338 145.201 148.402 124.374C150.108 107.417 126.411 99.2152 124.436 106.588C122.91 112.486 115.37 115.711 111.78 110.735C107.202 104.468 108.997 95.5289 104.958 88.9858C102.624 85.2074 98.2256 82.5349 93.6478 82.1663C89.5187 81.7977 85.2102 83.0878 81.1709 81.982C73.99 79.9545 70.3098 71.1075 62.9494 70.0938C62.3211 70.0017 61.6927 70.0017 61.0644 70.2781C59.8975 70.7389 59.4487 72.1212 59.1794 73.3193C58.3716 76.5447 57.6535 80.1388 59.5385 82.9035C61.2439 85.3917 64.6549 86.4054 66.2706 88.8937C67.8863 91.3819 67.3477 94.6995 66.3603 97.4642C65.3729 100.229 63.9368 103.086 64.1163 106.035C64.2958 110.274 67.7067 113.96 71.6562 115.711C75.6955 117.554 80.1836 117.831 84.6716 117.831C85.8385 117.831 87.0054 117.831 88.0826 118.199C91.5832 119.397 92.3911 124.282 90.1471 127.138C89.2494 128.244 88.0826 129.166 87.4542 130.364C85.7488 133.589 88.8006 137.552 92.3911 138.658C95.9815 139.672 99.8413 138.842 103.611 138.382C107.381 137.921 111.6 138.013 114.383 140.409C117.883 143.542 117.524 148.887 119.589 153.127C121.743 157.642 126.68 160.407 131.707 161.605C136.733 162.803 141.939 162.619 147.145 162.895C158.007 163.448 168.868 165.844 178.203 171.189" fill="#79C8A5"/>
<path opacity="0.2" d="M85.1608 133.577C88.0331 143.622 96.9195 152.1 104.908 158.736C113.346 165.74 122.771 171.545 132.285 177.075C152.212 188.686 173.037 199.469 188.476 216.61C188.925 217.071 189.643 216.425 189.194 215.965C175.64 199.653 156.341 189.239 137.851 178.826C128.515 173.481 119.091 168.136 110.473 161.685C100.779 154.496 89.1103 145.097 85.5198 133.485C85.4301 133.301 85.071 133.393 85.1608 133.577Z" fill="#444472"/>
<path d="M130.914 196.203C129.029 199.52 125.887 201.824 122.836 204.036C116.193 208.736 109.192 213.067 101.472 215.371C99.4976 216.016 97.4331 216.477 95.3686 216.293C93.3041 216.108 91.2396 215.279 89.9829 213.528C88.2775 211.224 88.457 207.999 88.0979 205.05C88.0082 204.128 87.7389 203.206 87.1106 202.561C85.5846 201.087 83.2508 202.469 81.6351 203.759C80.2887 204.865 78.9423 205.971 77.6856 207.077C76.0699 208.459 73.9156 209.842 71.9409 209.012C70.3252 208.275 69.6071 206.155 70.0559 204.405C70.5047 202.654 71.8511 201.271 73.2873 200.165C74.7235 199.152 76.429 198.322 77.8651 197.216C78.2242 196.94 78.5832 196.663 78.673 196.295C79.032 195.281 77.9549 194.36 77.0573 193.991C74.903 193.161 72.4795 193.161 70.415 194.175C68.3504 195.097 66.8245 196.848 65.0293 198.23C63.2341 199.612 61.0798 200.81 58.9255 200.35C56.861 199.889 55.1555 198.138 54.0784 196.203C52.4627 193.438 54.0784 187.724 58.746 187.632C61.3491 187.54 63.9521 187.632 66.5552 187.632C68.2607 187.632 70.415 187.171 70.6842 185.42C70.8638 184.038 69.4276 183.024 68.1709 182.471C63.2341 180.352 57.5791 181.181 52.2832 180.444C44.1149 179.338 47.1668 165.791 56.861 165.975C59.3743 165.975 61.8876 166.713 64.1317 167.911C66.7347 169.293 68.9788 171.505 71.8511 172.242C72.8385 172.518 74.0054 172.611 74.9928 172.242C75.9802 171.781 76.6982 170.675 76.429 169.569C76.1597 168.464 75.0825 167.911 74.1849 167.266C71.6716 165.33 70.5945 161.736 70.8638 158.511C71.0433 156.575 71.6716 154.548 73.2873 153.719C75.2621 152.613 77.7754 153.719 79.2116 155.47C80.7375 157.128 81.4556 159.34 82.6225 161.275C83.7894 163.211 85.5846 165.054 87.8286 165.146C88.1877 165.146 88.5467 165.146 88.9058 164.87C89.1751 164.685 89.2648 164.409 89.4443 164.132C90.2522 162.105 89.5341 159.801 89.2648 157.589C88.9955 155.377 89.7136 152.705 91.7781 152.152C93.4836 151.691 95.1891 152.981 95.9969 154.64C96.8048 156.207 97.0741 158.05 97.7921 159.709C99.7669 164.777 105.871 167.634 110.897 165.975C112.333 165.515 113.68 164.685 115.116 164.409C117.54 163.948 120.143 164.962 122.117 166.528C124.092 168.187 125.528 170.307 126.875 172.518C130.286 178.14 133.338 184.96 131.094 191.226" fill="#79C8A5"/>
<g opacity="0.41">
<path opacity="0.41" d="M67.2734 183.156C67.5427 183.064 67.812 183.064 68.0813 182.971C67.812 183.064 67.5427 183.064 67.2734 183.156C67.2734 183.156 67.2734 183.064 67.2734 183.156Z" fill="#444472"/>
<path opacity="0.41" d="M70.5944 182.234C69.7865 182.511 68.9787 182.787 68.0811 182.971C68.9787 182.879 69.7865 182.603 70.5944 182.234Z" fill="#444472"/>
</g>
<path d="M160.715 207.271C161.505 202.053 165.251 198.042 167.307 193.256C185.32 151.432 198.023 183.196 199.666 157.588C201.032 136.675 228.314 131.112 229.092 140.402C229.641 147.752 237.234 153.042 242.103 147.71C248.276 140.968 247.985 129.845 253.648 122.576C256.93 118.425 262.205 115.996 267.227 116.29C271.8 116.574 276.239 118.975 280.831 118.338C289.007 117.189 294.657 107.098 302.859 107.259C303.56 107.237 304.276 107.345 304.841 107.8C306.027 108.637 306.296 110.375 306.354 111.944C306.631 115.913 306.788 120.489 304.139 123.51C301.839 126.225 297.948 126.841 295.718 129.613C293.417 132.328 293.457 136.458 293.94 140.008C294.494 143.615 295.497 147.232 294.831 150.794C293.829 155.842 289.493 159.73 284.74 161.175C280.059 162.676 275.006 162.124 270.246 161.338C269.011 161.164 267.705 160.933 266.389 161.162C262.332 161.995 260.524 167.8 262.384 171.638C263.071 173.128 264.248 174.426 264.698 176.076C265.903 180.324 261.865 184.568 257.777 185.143C253.634 185.79 249.649 183.989 245.67 182.778C241.691 181.566 237.127 180.822 233.647 183.29C229.219 186.401 228.597 193.043 225.628 197.679C222.453 202.735 216.547 205.243 210.846 205.69C205.215 206.194 199.527 205.13 193.885 204.454C182.182 203.351 171.856 202.536 160.715 207.271Z" fill="#79C8A5"/>
<path d="M148.11 204.452C156.623 195.124 165.226 185.797 171.866 174.978C182.509 157.651 187.613 136.866 186.432 116.397C186.27 114.183 185.486 111.32 183.331 111.302C182.344 111.293 181.532 111.839 180.809 112.478C178.911 114.029 177.191 115.765 175.74 117.688C174.741 119.062 173.472 120.618 171.858 120.42C170.692 120.318 169.892 119.297 169.362 118.279C166.708 113.372 168.285 107.119 171.195 102.443C174.105 97.7678 178.265 93.9325 181.176 89.165C184.087 84.3975 185.574 78.1433 182.83 73.3276C182.122 72.1235 181.053 71.0086 179.707 70.9971C179.079 70.9918 178.538 71.2636 177.997 71.5355C172.049 74.5262 169.834 81.9723 167.002 88.1228C166.727 88.7656 166.273 89.499 165.642 89.7701C164.652 90.1304 163.671 89.2926 163.049 88.4579C159.857 83.6384 162.691 77.3035 165.067 71.9785C168.267 64.8173 170.667 56.6355 168.484 49.0599C167.959 47.3965 167.164 45.7309 165.736 44.7972C162.341 42.7408 158.003 46.3903 157.253 50.3468C156.503 54.3032 157.727 58.3686 157.784 62.4241C157.776 63.4378 157.678 64.4507 156.954 65.1819C155.778 66.2778 153.719 65.523 152.923 64.1338C152.126 62.7447 152.23 60.9945 152.423 59.3373C153.514 46.4443 154.167 32.2573 146.35 22.0533C145.551 21.0327 144.661 20.0114 143.408 19.6321C140.99 18.9664 138.64 20.8818 137.456 23.0835C134.267 28.8625 135.734 36.1555 138.288 42.2598C140.842 48.364 144.476 54.1088 145.681 60.5702C146.111 62.8778 146.181 65.3667 145.266 67.4786C144.351 69.5905 142.183 71.3231 139.94 71.1197C136.981 70.818 135.12 67.7609 133.886 64.9857C132.827 62.7648 131.767 60.544 130.707 58.4153C130.09 57.1198 129.204 55.6377 127.768 55.6255C125.973 55.5181 125.056 57.9065 125.041 59.8417C124.997 65.2787 127.918 70.3723 131.657 74.2748C135.305 78.1765 139.769 81.2557 143.869 84.7927C144.939 85.7234 146.008 86.7462 146.626 88.0417C147.42 89.7073 147.314 91.7339 146.94 93.5739C146.014 97.1603 143.745 100.274 140.588 102.091C138.243 103.453 135.545 104.075 133.467 105.809C129.943 108.636 129 114.249 131.482 118.141C133.609 121.569 137.636 123.078 141.49 123.756C145.345 124.434 149.385 124.376 153.145 125.606C154.846 126.173 156.545 126.925 157.521 128.408C158.94 130.54 158.558 133.393 157.552 135.689C155.998 139.178 153.191 142.103 149.769 143.548C146.616 144.904 143.113 145.151 139.873 146.229C136.633 147.215 133.295 149.399 132.459 152.801C131.252 157.768 135.885 162.139 140.354 164.481C144.824 166.73 150.105 168.619 152.222 173.245C153.723 176.391 153.243 180.165 152.587 183.569C151.181 191.022 148.879 198.191 145.771 205.077" fill="#79C8A5"/>
<path d="M227.636 119.434C231.496 116.393 234.817 112.431 237.061 107.823C239.305 103.123 240.203 97.7777 240.921 92.4326C241.639 86.5346 242.178 80.6366 242.357 74.6465C233.74 75.9367 225.213 77.6876 217.134 81.0974C209.056 84.5072 201.247 89.3915 195.771 96.764C186.346 109.482 186.705 126.254 186.705 126.254C186.705 126.254 206.722 135.654 227.636 119.434Z" fill="#79C8A5"/>
<g opacity="0.41">
<path opacity="0.41" d="M208.044 140.489C207.954 140.857 207.865 141.134 207.775 141.502C207.865 141.134 207.954 140.857 207.954 140.489C207.954 140.396 208.044 140.489 208.044 140.489Z" fill="#444472"/>
<path opacity="0.41" d="M206.698 144.636C207.057 143.622 207.416 142.608 207.775 141.502C207.506 142.608 207.147 143.622 206.698 144.636Z" fill="#444472"/>
<path opacity="0.47" d="M186.501 190.345C194.041 200.759 201.94 211.357 213.43 216.702C211.365 209.237 209.48 201.68 207.954 194.031C200.055 186.567 194.041 177.351 188.117 168.135C188.027 168.043 188.207 167.951 188.207 168.043C194.221 176.614 200.325 185 207.595 192.372C205.351 180.761 203.825 168.965 203.287 157.077C203.197 157.077 203.107 157.077 203.107 156.985C200.504 151.916 198.709 146.479 197.991 140.765C197.991 140.673 198.081 140.673 198.081 140.765C198.978 146.294 200.684 151.455 203.287 156.339C203.197 154.404 203.197 152.377 203.107 150.441C203.018 150.349 202.928 150.257 203.018 150.073L203.107 149.981C203.107 146.663 203.107 143.345 203.287 139.936C203.287 139.843 203.377 139.936 203.377 139.936C203.287 143.161 203.287 146.479 203.377 149.704C204.633 148.322 205.89 146.571 206.698 144.728C205.89 146.755 204.903 148.598 203.377 150.257C203.646 160.763 204.813 171.269 206.518 181.59C215.764 175.324 218.726 163.712 223.842 154.036C223.842 153.943 223.932 154.036 223.932 154.036C218.905 163.896 216.212 175.969 206.877 182.235C206.788 182.327 206.698 182.327 206.608 182.327C207.236 186.106 207.954 189.792 208.762 193.571C208.942 193.755 208.942 193.939 208.852 194.123C209.57 197.349 210.288 200.482 211.096 203.616C220.072 196.612 227.522 187.949 232.729 177.259C232.729 177.167 232.818 177.259 232.818 177.259C227.971 188.225 220.79 197.625 211.276 204.168C212.891 210.712 214.686 217.162 216.661 223.613C226.445 217.439 235.78 209.882 238.743 197.441C238.743 197.349 238.832 197.441 238.832 197.441C236.05 210.066 226.715 217.9 216.931 224.351C217.559 226.378 218.187 228.313 218.816 230.341C219.085 231.17 217.918 231.631 217.649 230.802C216.212 226.378 214.956 221.955 213.699 217.531C201.581 212.37 193.862 201.496 186.412 190.437C186.322 190.345 186.412 190.253 186.501 190.345Z" fill="#444472"/>
</g>
<path d="M191.436 85.3574L130.427 222.594L132.958 223.781L193.967 86.5436L191.436 85.3574Z" fill="#7A6A74"/>
<path d="M129.952 227.023C127.887 226.102 126.99 223.521 127.887 221.402C128.785 219.282 131.298 218.361 133.363 219.282C168.19 235.594 209.39 219.835 225.278 184.078C241.166 148.322 225.817 106.022 190.989 89.7105C188.925 88.789 188.027 86.2086 188.925 84.089C189.822 81.9694 192.336 81.0479 194.4 81.9694C233.267 100.216 250.501 147.492 232.728 187.488C214.956 227.668 168.908 245.27 129.952 227.023Z" fill="#7A6A74"/>
<path d="M162.176 221.31C198.068 221.31 227.163 191.438 227.163 154.589C227.163 117.739 198.068 87.8674 162.176 87.8674C126.285 87.8674 97.189 117.739 97.189 154.589C97.189 191.438 126.285 221.31 162.176 221.31Z" fill="#ABFAFF"/>
<path d="M221.329 182.328C219.085 187.396 216.302 192.004 213.071 196.243C205.351 199.561 196.734 200.667 188.476 199.192C187.399 199.008 186.322 198.731 185.514 197.994C183.09 195.782 185.155 191.82 185.155 188.502C185.155 185.737 183.539 183.249 182.013 180.945C178.602 175.784 175.191 169.426 177.256 163.436C179.32 157.445 186.232 154.22 188.027 148.138C189.643 142.332 185.963 136.342 185.873 130.259C185.783 125.559 188.027 121.044 191.169 117.726C194.4 114.408 198.529 112.197 202.838 110.63C205.082 109.801 207.595 109.248 210.019 109.248C227.163 128.508 232.549 157.169 221.329 182.328ZM142.429 216.886C145.75 215.227 148.532 212.094 149.161 208.408C149.789 204.353 147.814 200.39 145.391 197.165C142.877 193.939 139.915 191.175 137.851 187.673C136.953 186.198 136.325 184.539 136.325 182.788C136.415 177.996 141.441 174.679 141.98 169.979C142.518 165.832 139.287 162.053 135.696 160.21C132.016 158.367 127.887 157.906 123.938 156.8C119.988 155.694 116.039 153.483 114.423 149.612C112.448 144.728 114.962 138.922 112.269 134.314C110.563 131.365 106.075 129.43 102.216 128.785C88.6616 161.869 103.113 200.298 135.158 215.319C137.043 216.149 138.838 216.978 140.723 217.623C141.351 217.439 141.89 217.163 142.429 216.886ZM124.387 100.309C124.566 101.046 124.835 101.783 125.194 102.428C128.336 109.248 135.068 114.408 136.056 121.873C136.325 123.901 136.235 126.204 137.492 127.771C138.12 128.6 139.107 129.061 140.095 129.522C148.263 133.024 158.496 130.536 164.151 123.532C169.626 116.712 170.614 107.22 174.922 99.5713C176.179 97.3595 177.705 95.2399 177.705 92.6596C177.705 91.5537 177.346 90.54 176.807 89.6184C158.316 85.1949 139.287 89.342 124.387 100.309Z" fill="#2EA889"/>
<path d="M168.549 232.645H155.803V263.794H168.549V232.645Z" fill="#7A6A74"/>
<path d="M212.532 274.944H111.82C108.499 274.944 105.896 272.18 105.896 268.862C105.896 265.452 108.589 262.78 111.82 262.78H212.442C215.764 262.78 218.367 265.544 218.367 268.862C218.456 272.18 215.764 274.944 212.532 274.944Z" fill="#7A6A74"/>
<path d="M350.585 209.145C356.958 209.145 362.164 203.8 362.164 197.257C362.164 190.714 356.958 185.369 350.585 185.369H215.046C219.534 193.294 219.534 201.22 215.046 209.145H350.585Z" fill="#EDEDED"/>
<path d="M350.585 209.145C357.138 209.145 362.434 203.524 362.164 196.704C361.895 190.345 356.509 185.461 350.316 185.461H213.25C212.263 185.461 211.455 184.631 211.455 183.618C211.455 182.604 212.263 181.775 213.25 181.775H350.585C358.933 181.775 365.665 188.686 365.665 197.257C365.665 205.827 358.933 212.739 350.585 212.739H213.25C212.263 212.739 211.455 211.91 211.455 210.896C211.455 209.882 212.263 209.053 213.25 209.053H350.585V209.145Z" fill="#FFC278"/>
<path d="M357.317 187.673L346.366 187.765L325.811 187.949L284.611 188.041L243.41 187.949L222.855 187.857L216.212 187.765C216.123 187.673 216.123 187.581 216.033 187.488L222.765 187.396L243.32 187.304L284.521 187.212L325.721 187.304L346.277 187.396L356.868 187.488C357.138 187.488 357.227 187.581 357.317 187.673ZM360.01 190.437C360.01 190.345 359.92 190.345 359.92 190.253L346.456 190.069L325.901 189.977L284.7 189.884L243.5 189.977L222.945 190.069L217.29 190.161C217.29 190.253 217.379 190.345 217.379 190.53L222.945 190.622L243.5 190.714L284.7 190.806L325.811 190.714L346.366 190.622L360.01 190.437ZM361.446 193.202C361.446 193.202 361.446 193.11 361.356 193.11L346.366 192.926L325.811 192.833L284.611 192.741L243.41 192.833L222.855 192.926L218.008 193.018C218.008 193.11 218.008 193.294 218.097 193.386L222.945 193.479L243.5 193.571L284.7 193.663L325.811 193.479L346.366 193.386L361.446 193.202ZM216.033 207.21L222.765 207.302L243.32 207.394L284.521 207.486L325.721 207.394L346.277 207.302L356.868 207.21C356.958 207.118 357.048 207.025 357.138 207.025L346.187 206.933L325.631 206.841L284.431 206.749L243.231 206.841L222.675 206.933L216.033 207.025C216.123 206.933 216.123 207.118 216.033 207.21ZM359.92 204.353C359.92 204.261 360.01 204.261 360.01 204.169L346.456 203.984L325.901 203.892L284.7 203.8L243.5 203.892L222.945 203.984L217.379 204.076C217.379 204.169 217.29 204.261 217.29 204.445L222.945 204.537L243.5 204.629L284.7 204.722L325.901 204.629L346.456 204.537L359.92 204.353ZM361.356 201.496C361.356 201.496 361.356 201.404 361.446 201.404L346.456 201.22L325.901 201.128L284.7 201.035L243.5 201.128L222.945 201.22L218.097 201.312C218.097 201.404 218.097 201.588 218.008 201.68L222.855 201.773L243.41 201.865L284.611 201.957L325.811 201.865L346.366 201.773L361.356 201.496ZM362.075 198.731V198.639L346.366 198.455L325.811 198.363L284.611 198.271L243.41 198.363L222.855 198.455L218.367 198.547C218.367 198.639 218.367 198.824 218.367 198.916L222.855 199.008L243.41 199.1L284.611 199.192L325.811 199.008L346.366 198.916L362.075 198.731ZM362.075 195.967V195.875L346.456 195.69L325.901 195.598L284.7 195.506L243.5 195.598L222.945 195.69L218.457 195.782C218.457 195.875 218.457 196.059 218.457 196.151L222.945 196.243L243.5 196.335L284.7 196.428L325.811 196.243L346.366 196.151L362.075 195.967Z" fill="#E1E3EF"/>
<path d="M229.677 208.131L235.601 204.629L241.525 208.131V192.833H229.677V208.131Z" fill="#FFC278"/>
<path d="M226.625 240.202C220.252 240.202 215.046 234.857 215.046 228.313C215.046 221.77 220.252 216.425 226.625 216.425H362.164C357.676 224.351 357.676 232.276 362.164 240.202H226.625Z" fill="#EDEDED"/>
<path d="M226.625 240.202C220.072 240.202 214.776 234.58 215.046 227.761C215.315 221.402 220.7 216.518 226.894 216.518H363.87C364.857 216.518 365.665 215.688 365.665 214.674C365.665 213.661 364.857 212.831 363.87 212.831H226.535C218.187 212.831 211.455 219.743 211.455 228.314C211.455 236.884 218.187 243.796 226.535 243.796H363.87C364.857 243.796 365.665 242.966 365.665 241.953C365.665 240.939 364.857 240.11 363.87 240.11H226.625V240.202Z" fill="#FF7648"/>
<path d="M220.162 218.453L230.754 218.361L251.309 218.268L292.51 218.176L333.71 218.268L354.265 218.361L360.997 218.453C360.908 218.545 360.908 218.637 360.818 218.729L354.176 218.821L333.62 218.914L292.42 219.006L251.219 218.914L230.664 218.821L219.713 218.729C219.983 218.637 220.072 218.545 220.162 218.453ZM230.754 221.586L251.309 221.678L292.51 221.77L333.71 221.678L354.265 221.586L359.831 221.494C359.831 221.402 359.92 221.31 359.92 221.125L354.265 221.033L333.71 220.941L292.51 220.849L251.309 220.941L230.754 221.033L217.29 221.217C217.29 221.31 217.2 221.31 217.2 221.402L230.754 221.586ZM230.754 224.351L251.309 224.443L292.51 224.535L333.71 224.443L354.265 224.351L359.113 224.259C359.113 224.166 359.113 223.982 359.202 223.89L354.355 223.798L333.8 223.706L292.599 223.613L251.399 223.706L230.844 223.798L215.854 223.982C215.854 223.982 215.853 224.074 215.764 224.074L230.754 224.351ZM360.997 237.898L354.355 237.806L333.8 237.713L292.599 237.621L251.399 237.713L230.844 237.806L219.893 237.898C219.983 237.99 220.072 238.082 220.162 238.082L230.754 238.174L251.309 238.266L292.51 238.358L333.71 238.266L354.265 238.174L360.997 238.082C361.087 238.174 361.087 237.99 360.997 237.898ZM230.754 235.502L251.309 235.594L292.51 235.686L333.71 235.594L354.265 235.502L359.92 235.409C359.92 235.317 359.831 235.225 359.831 235.041L354.265 234.949L333.71 234.857L292.51 234.764L251.309 234.857L230.754 234.949L217.2 235.133C217.2 235.225 217.29 235.225 217.29 235.317L230.754 235.502ZM230.754 232.737L251.309 232.829L292.51 232.921L333.71 232.829L354.265 232.737L359.113 232.645C359.113 232.553 359.113 232.368 359.023 232.276L354.176 232.184L333.62 232.092L292.42 232L251.219 232.092L230.664 232.184L215.674 232.368C215.674 232.368 215.674 232.46 215.764 232.46L230.754 232.737ZM230.754 229.972L251.309 230.064L292.51 230.157L333.71 230.064L354.265 229.972L358.753 229.88C358.753 229.788 358.753 229.604 358.753 229.511L354.265 229.419L333.71 229.327L292.51 229.235L251.309 229.327L230.754 229.419L215.046 229.604V229.696L230.754 229.972ZM230.754 227.208L251.309 227.3L292.51 227.392L333.71 227.3L354.265 227.208L358.753 227.115C358.753 227.023 358.753 226.839 358.753 226.747L354.265 226.655L333.71 226.562L292.51 226.47L251.309 226.562L230.754 226.655L215.135 226.839V226.931L230.754 227.208Z" fill="#E1E3EF"/>
<path d="M350.585 271.258C356.958 271.258 362.164 265.913 362.164 259.37C362.164 252.827 356.958 247.482 350.585 247.482H215.046C219.534 255.407 219.534 263.333 215.046 271.258H350.585Z" fill="#EDEDED"/>
<path d="M350.585 271.258C357.138 271.258 362.434 265.637 362.164 258.817C361.895 252.458 356.509 247.574 350.316 247.574H213.34C212.353 247.574 211.545 246.745 211.545 245.731C211.545 244.717 212.353 243.888 213.34 243.888H350.675C359.023 243.888 365.755 250.8 365.755 259.37C365.755 267.941 359.023 274.852 350.675 274.852H213.34C212.353 274.852 211.545 274.023 211.545 273.009C211.545 271.996 212.353 271.166 213.34 271.166H350.585V271.258Z" fill="#8F98FF"/>
<path d="M357.317 249.786L346.366 249.878L325.811 249.97L284.611 250.062L243.41 249.97L222.855 249.878L216.212 249.786C216.123 249.694 216.123 249.602 216.033 249.509L222.765 249.417L243.32 249.325L284.521 249.233L325.721 249.325L346.277 249.417L356.868 249.509C357.138 249.602 357.227 249.694 357.317 249.786ZM360.01 252.551C360.01 252.458 359.92 252.458 359.92 252.366L346.456 252.182L325.901 252.09L284.7 251.998L243.5 252.09L222.945 252.182L217.29 252.274C217.29 252.366 217.379 252.458 217.379 252.643L222.945 252.735L243.5 252.827L284.7 252.919L325.901 252.827L346.456 252.735L360.01 252.551ZM361.446 255.315C361.446 255.315 361.446 255.223 361.356 255.223L346.366 255.039L325.811 254.947L284.611 254.854L243.41 254.947L222.855 255.039L218.008 255.131C218.008 255.223 218.008 255.407 218.097 255.5L222.945 255.592L243.5 255.684L284.7 255.776L325.901 255.684L346.456 255.592L361.446 255.315ZM359.92 266.466C359.92 266.374 360.01 266.374 360.01 266.282L346.456 266.097L325.901 266.005L284.7 265.913L243.5 266.005L222.945 266.097L217.379 266.19C217.379 266.282 217.29 266.374 217.29 266.558L222.945 266.65L243.5 266.743L284.7 266.835L325.901 266.743L346.456 266.65L359.92 266.466ZM361.356 263.609C361.356 263.609 361.356 263.517 361.446 263.517L346.456 263.333L325.901 263.241L284.7 263.148L243.5 263.241L222.945 263.333L218.097 263.425C218.097 263.517 218.097 263.701 218.008 263.794L222.855 263.886L243.41 263.978L284.611 264.07L325.811 263.978L346.366 263.886L361.356 263.609ZM362.075 260.845V260.752L346.366 260.568L325.811 260.476L284.611 260.384L243.41 260.476L222.855 260.568L218.367 260.66C218.367 260.752 218.367 260.937 218.367 261.029L222.855 261.121L243.41 261.213L284.611 261.305L325.811 261.213L346.366 261.121L362.075 260.845ZM362.075 258.08V257.988L346.456 257.803L325.901 257.711L284.7 257.619L243.5 257.711L222.945 257.803L218.457 257.896C218.457 257.988 218.457 258.172 218.457 258.264L222.945 258.356L243.5 258.449L284.7 258.541L325.901 258.449L346.456 258.356L362.075 258.08Z" fill="#E1E3EF"/>
<path d="M262.26 270.244L268.184 266.742L274.019 270.244V254.854H262.26V270.244Z" fill="#8F98FF"/>
</svg>
